<svg xmlns="http://www.w3.org/2000/svg" viewBox="0 0 1320.54 1333.34" shape-rendering="geometricPrecision" text-rendering="geometricPrecision" image-rendering="optimizeQuality" fill-rule="evenodd" clip-rule="evenodd"><path d="M581.74 0c160.48 0 306.02 65.3 411.44 170.3 105.42 105.42 170.3 250.54 170.3 411.44 0 117.37-35 227.06-94.75 318.4l251.81 274.44-173.71 158.77-242.85-267.18c-92.19 61.46-203.16 97.31-322.24 97.31-160.48 0-306.02-65.3-411.44-170.29C64.88 887.76 0 742.65 0 581.75c0-160.48 65.3-306.02 170.3-411.44C275.72 64.89 420.83.01 581.74.01zM312.47 433.51h82.9v145.2c0 30.49-2.68 53.71-8.09 69.64-5.41 15.87-16.3 29.37-32.67 40.45-16.37 11.02-37.34 16.56-62.86 16.56-27.01 0-47.92-3.67-62.73-10.96-14.87-7.28-26.33-17.93-34.42-31.99-8.09-14-12.88-31.37-14.31-52.03l78.79-10.7c.12 11.7 1.18 20.41 3.11 26.08 1.93 5.72 5.22 10.27 9.89 13.81 3.17 2.3 7.65 3.43 13.5 3.43 9.28 0 16.06-3.43 20.41-10.27 4.3-6.85 6.47-18.43 6.47-34.67V433.5zm108.66 133.87c0-43.63 12.14-77.61 36.47-101.88 24.33-24.34 58.19-36.48 101.63-36.48 44.5 0 78.79 11.95 102.87 35.79 24.09 23.9 36.1 57.38 36.1 100.39 0 31.24-5.22 56.82-15.74 76.8-10.52 19.98-25.77 35.54-45.62 46.68-19.91 11.14-44.68 16.68-74.37 16.68-30.12 0-55.08-4.8-74.87-14.38-19.72-9.65-35.78-24.83-48.04-45.62-12.26-20.72-18.43-46.74-18.43-77.98zm82.52.19c0 26.95 5.04 46.37 15.06 58.13 10.08 11.76 23.78 17.67 41.08 17.67 17.73 0 31.55-5.79 41.26-17.3 9.77-11.57 14.63-32.24 14.63-62.17 0-25.14-5.11-43.5-15.25-55.08-10.21-11.64-23.96-17.43-41.39-17.43-16.67 0-30.12 5.91-40.2 17.67-10.15 11.76-15.19 31.31-15.19 58.5zm220.69-134.06h154.78c25.76 0 45.55 6.41 59.37 19.17 13.82 12.76 20.72 28.57 20.72 47.42 0 15.81-4.92 29.38-14.81 40.64-6.53 7.59-16.18 13.5-28.81 17.93 19.23 4.6 33.29 12.51 42.38 23.77 9.02 11.27 13.57 25.39 13.57 42.38 0 13.88-3.24 26.33-9.65 37.41-6.47 11.08-15.31 19.79-26.45 26.26-6.97 3.98-17.43 6.91-31.43 8.71-18.61 2.43-30.93 3.68-37.03 3.68H724.33V433.51zm83.27 104.93h36.03c12.89 0 21.91-2.24 26.95-6.66 5.04-4.48 7.59-10.89 7.59-19.3 0-7.78-2.55-13.87-7.59-18.23-5.04-4.42-13.88-6.59-26.39-6.59h-36.59v50.78zm0 104.93h42.13c14.25 0 24.27-2.55 30.12-7.59 5.85-5.04 8.78-11.76 8.78-20.29 0-7.91-2.86-14.25-8.65-19.05-5.79-4.79-15.93-7.21-30.43-7.21h-41.95v54.14zm139.47-426.98C853.61 122.92 724.29 64.87 581.74 64.87c-142.55 0-271.87 58.05-365.34 151.52-93.47 93.47-151.52 222.79-151.52 365.34 0 142.56 58.04 271.88 151.52 365.35 93.47 93.47 222.79 151.52 365.34 151.52 142.55 0 271.87-58.05 365.34-151.52 93.47-93.47 151.52-222.79 151.52-365.35 0-142.55-58.04-271.87-151.52-365.34z" fill-rule="nonzero"/></svg>